<?xml version="1.0" encoding="utf-8" standalone="yes"?> <svg width="1000" height="1000" viewBox="-1 -1 27 27" xmlns="http://www.w3.org/2000/svg" xmlns:xlink="http://www.w3.org/1999/xlink" shape-rendering="geometricPrecision" id="qr code"><path fill-opacity="1" fill="rgb(255, 246, 233)" id="qr dark pixels" fill-rule="evenodd" d="M 9 0.2a 0.2,0.2 0 0 1 0.2,-0.2L 9.8 0a 0.2,0.2 0 0 1 0.2,0.2L 10 1.8a 0.2,0.2 0 0 0 0.2,0.2L 10.8 2a 0.2,0.2 0 0 0 0.2,-0.2L 11 1.2a 0.2,0.2 0 0 1 0.2,-0.2L 13.8 1a 0.2,0.2 0 0 1 0.2,0.2L 14 1.8a 0.2,0.2 0 0 1 -0.2,0.2L 12.2 2a 0.2,0.2 0 0 0 -0.2,0.2L 12 3.8a 0.2,0.2 0 0 1 -0.2,0.2L 11.2 4a 0.2,0.2 0 0 1 -0.2,-0.2L 11 3.2a 0.2,0.2 0 0 0 -0.2,-0.2L 10.2 3a 0.2,0.2 0 0 0 -0.2,0.2L 10 3.8a 0.2,0.2 0 0 1 -0.2,0.2L 8.2 4a 0.2,0.2 0 0 1 -0.2,-0.2L 8 3.2a 0.2,0.2 0 0 1 0.2,-0.2L 8.8 3a 0.2,0.2 0 0 0 0.2,-0.2L 9 2.2a 0.2,0.2 0 0 0 -0.2,-0.2L 8.2 2a 0.2,0.2 0 0 1 -0.2,-0.2L 8 1.2a 0.2,0.2 0 0 1 0.2,-0.2L 8.8 1a 0.2,0.2 0 0 0 0.2,-0.2z M 14 0.2a 0.2,0.2 0 0 1 0.2,-0.2L 14.8 0a 0.2,0.2 0 0 1 0.2,0.2L 15 0.8a 0.2,0.2 0 0 1 -0.2,0.2L 14.2 1a 0.2,0.2 0 0 1 -0.2,-0.2z M 15 1.2a 0.2,0.2 0 0 1 0.2,-0.2L 16.8 1a 0.2,0.2 0 0 1 0.2,0.2L 17 3.8a 0.2,0.2 0 0 1 -0.2,0.2L 15.2 4a 0.2,0.2 0 0 1 -0.2,-0.2L 15 3.2a 0.2,0.2 0 0 1 0.2,-0.2L 15.8 3a 0.2,0.2 0 0 0 0.2,-0.2L 16 2.2a 0.2,0.2 0 0 0 -0.2,-0.2L 15.2 2a 0.2,0.2 0 0 1 -0.2,-0.2z M 14 2.2a 0.2,0.2 0 0 1 0.2,-0.2L 14.8 2a 0.2,0.2 0 0 1 0.2,0.2L 15 2.8a 0.2,0.2 0 0 1 -0.2,0.2L 14.2 3a 0.2,0.2 0 0 1 -0.2,-0.2z M 13 3.2a 0.2,0.2 0 0 1 0.2,-0.2L 13.8 3a 0.2,0.2 0 0 1 0.2,0.2L 14 3.8a 0.2,0.2 0 0 1 -0.2,0.2L 13.2 4a 0.2,0.2 0 0 1 -0.2,-0.2z M 10 4.2a 0.2,0.2 0 0 1 0.2,-0.2L 10.8 4a 0.2,0.2 0 0 1 0.2,0.2L 11 6.8a 0.2,0.2 0 0 1 -0.2,0.2L 10.2 7a 0.2,0.2 0 0 1 -0.2,-0.2z M 12 4.2a 0.2,0.2 0 0 1 0.2,-0.2L 12.8 4a 0.2,0.2 0 0 1 0.2,0.2L 13 4.8a 0.2,0.2 0 0 1 -0.2,0.2L 12.2 5a 0.2,0.2 0 0 1 -0.2,-0.2z M 14 4.2a 0.2,0.2 0 0 1 0.2,-0.2L 14.8 4a 0.2,0.2 0 0 1 0.2,0.2L 15 4.8a 0.2,0.2 0 0 1 -0.2,0.2L 14.2 5a 0.2,0.2 0 0 1 -0.2,-0.2z M 8 5.2a 0.2,0.2 0 0 1 0.2,-0.2L 8.8 5a 0.2,0.2 0 0 1 0.2,0.2L 9 6.8a 0.2,0.2 0 0 1 -0.2,0.2L 8.2 7a 0.2,0.2 0 0 1 -0.2,-0.2z M 13 5.2a 0.2,0.2 0 0 1 0.2,-0.2L 13.8 5a 0.2,0.2 0 0 1 0.2,0.2L 14 5.8a 0.2,0.2 0 0 1 -0.2,0.2L 13.2 6a 0.2,0.2 0 0 1 -0.2,-0.2z M 15 5.2a 0.2,0.2 0 0 1 0.2,-0.2L 16.8 5a 0.2,0.2 0 0 1 0.2,0.2L 17 6.8a 0.2,0.2 0 0 1 -0.2,0.2L 16.2 7a 0.2,0.2 0 0 1 -0.2,-0.2L 16 6.2a 0.2,0.2 0 0 0 -0.2,-0.2L 15.2 6a 0.2,0.2 0 0 1 -0.2,-0.2z M 12 6.2a 0.2,0.2 0 0 1 0.2,-0.2L 12.8 6a 0.2,0.2 0 0 1 0.2,0.2L 13 7.8a 0.2,0.2 0 0 0 0.2,0.2L 13.8 8a 0.2,0.2 0 0 1 0.2,0.2L 14 8.8a 0.2,0.2 0 0 1 -0.2,0.2L 12.2 9a 0.2,0.2 0 0 1 -0.2,-0.2z M 14 6.2a 0.2,0.2 0 0 1 0.2,-0.2L 14.8 6a 0.2,0.2 0 0 1 0.2,0.2L 15 6.8a 0.2,0.2 0 0 1 -0.2,0.2L 14.2 7a 0.2,0.2 0 0 1 -0.2,-0.2z M 15 7.2a 0.2,0.2 0 0 1 0.2,-0.2L 15.8 7a 0.2,0.2 0 0 1 0.2,0.2L 16 7.8a 0.2,0.2 0 0 0 0.2,0.2L 17.8 8a 0.2,0.2 0 0 1 0.2,0.2L 18 8.8a 0.2,0.2 0 0 1 -0.2,0.2L 15.2 9a 0.2,0.2 0 0 1 -0.2,-0.2z M 0 8.2a 0.2,0.2 0 0 1 0.2,-0.2L 4.8 8a 0.2,0.2 0 0 1 0.2,0.2L 5 8.8a 0.2,0.2 0 0 0 0.2,0.2L 5.8 9a 0.2,0.2 0 0 1 0.2,0.2L 6 9.8a 0.2,0.2 0 0 0 0.2,0.2L 7.8 10a 0.2,0.2 0 0 0 0.2,-0.2L 8 9.2a 0.2,0.2 0 0 0 -0.2,-0.2L 6.2 9a 0.2,0.2 0 0 1 -0.2,-0.2L 6 8.2a 0.2,0.2 0 0 1 0.2,-0.2L 10.8 8a 0.2,0.2 0 0 1 0.2,0.2L 11 8.8a 0.2,0.2 0 0 1 -0.2,0.2L 10.2 9a 0.2,0.2 0 0 0 -0.2,0.2L 10 10.8a 0.2,0.2 0 0 0 0.2,0.2L 10.8 11a 0.2,0.2 0 0 0 0.2,-0.2L 11 10.2a 0.2,0.2 0 0 1 0.2,-0.2L 13.8 10a 0.2,0.2 0 0 1 0.2,0.2L 14 10.8a 0.2,0.2 0 0 1 -0.2,0.2L 12.2 11a 0.2,0.2 0 0 0 -0.2,0.2L 12 11.8a 0.2,0.2 0 0 0 0.2,0.2L 13.8 12a 0.2,0.2 0 0 1 0.2,0.2L 14 12.8a 0.2,0.2 0 0 1 -0.2,0.2L 13.2 13a 0.2,0.2 0 0 0 -0.2,0.2L 13 13.8a 0.2,0.2 0 0 1 -0.2,0.2L 12.2 14a 0.2,0.2 0 0 1 -0.2,-0.2L 12 13.2a 0.2,0.2 0 0 0 -0.2,-0.2L 11.2 13a 0.2,0.2 0 0 1 -0.2,-0.2L 11 12.2a 0.2,0.2 0 0 0 -0.2,-0.2L 10.2 12a 0.2,0.2 0 0 0 -0.2,0.2L 10 12.8a 0.2,0.2 0 0 0 0.2,0.2L 10.8 13a 0.2,0.2 0 0 1 0.2,0.2L 11 13.8a 0.2,0.2 0 0 1 -0.2,0.2L 10.2 14a 0.2,0.2 0 0 0 -0.2,0.2L 10 14.8a 0.2,0.2 0 0 1 -0.2,0.2L 9.2 15a 0.2,0.2 0 0 1 -0.2,-0.2L 9 13.2a 0.2,0.2 0 0 0 -0.2,-0.2L 6.2 13a 0.2,0.2 0 0 0 -0.2,0.2L 6 13.8a 0.2,0.2 0 0 0 0.2,0.2L 6.8 14a 0.2,0.2 0 0 1 0.2,0.2L 7 14.8a 0.2,0.2 0 0 1 -0.2,0.2L 6.2 15a 0.2,0.2 0 0 0 -0.2,0.2L 6 15.8a 0.2,0.2 0 0 0 0.2,0.2L 6.8 16a 0.2,0.2 0 0 1 0.2,0.2L 7 16.8a 0.2,0.2 0 0 1 -0.2,0.2L 2.2 17a 0.2,0.2 0 0 1 -0.2,-0.2L 2 16.2a 0.2,0.2 0 0 1 0.2,-0.2L 3.8 16a 0.2,0.2 0 0 0 0.2,-0.2L 4 15.2a 0.2,0.2 0 0 0 -0.2,-0.2L 2.2 15a 0.2,0.2 0 0 1 -0.2,-0.2L 2 14.2a 0.2,0.2 0 0 1 0.2,-0.2L 3.8 14a 0.2,0.2 0 0 0 0.2,-0.2L 4 12.2a 0.2,0.2 0 0 1 0.2,-0.2L 4.8 12a 0.2,0.2 0 0 0 0.2,-0.2L 5 10.2a 0.2,0.2 0 0 0 -0.2,-0.2L 4.2 10a 0.2,0.2 0 0 0 -0.2,0.2L 4 11.8a 0.2,0.2 0 0 1 -0.2,0.2L 2.2 12a 0.2,0.2 0 0 0 -0.2,0.2L 2 13.8a 0.2,0.2 0 0 1 -0.2,0.2L 1.2 14a 0.2,0.2 0 0 0 -0.2,0.2L 1 16.8a 0.2,0.2 0 0 1 -0.2,0.2L 0.2 17a 0.2,0.2 0 0 1 -0.2,-0.2zM 2 9.2a 0.2,0.2 0 0 1 0.2,-0.2L 2.8 9a 0.2,0.2 0 0 1 0.2,0.2L 3 10.8a 0.2,0.2 0 0 1 -0.2,0.2L 1.2 11a 0.2,0.2 0 0 1 -0.2,-0.2L 1 10.2a 0.2,0.2 0 0 1 0.2,-0.2L 1.8 10a 0.2,0.2 0 0 0 0.2,-0.2z M 6 11.2a 0.2,0.2 0 0 1 0.2,-0.2L 7.8 11a 0.2,0.2 0 0 1 0.2,0.2L 8 11.8a 0.2,0.2 0 0 1 -0.2,0.2L 6.2 12a 0.2,0.2 0 0 1 -0.2,-0.2z M 19 8.2a 0.2,0.2 0 0 1 0.2,-0.2L 19.8 8a 0.2,0.2 0 0 1 0.2,0.2L 20 9.8a 0.2,0.2 0 0 0 0.2,0.2L 21.8 10a 0.2,0.2 0 0 1 0.2,0.2L 22 10.8a 0.2,0.2 0 0 1 -0.2,0.2L 20.2 11a 0.2,0.2 0 0 0 -0.2,0.2L 20 11.8a 0.2,0.2 0 0 0 0.2,0.2L 20.8 12a 0.2,0.2 0 0 1 0.2,0.2L 21 12.8a 0.2,0.2 0 0 1 -0.2,0.2L 20.2 13a 0.2,0.2 0 0 0 -0.2,0.2L 20 13.8a 0.2,0.2 0 0 0 0.2,0.2L 20.8 14a 0.2,0.2 0 0 0 0.2,-0.2L 21 13.2a 0.2,0.2 0 0 1 0.2,-0.2L 21.8 13a 0.2,0.2 0 0 1 0.2,0.2L 22 14.8a 0.2,0.2 0 0 1 -0.2,0.2L 21.2 15a 0.2,0.2 0 0 0 -0.2,0.2L 21 16.8a 0.2,0.2 0 0 0 0.2,0.2L 21.8 17a 0.2,0.2 0 0 1 0.2,0.2L 22 17.8a 0.2,0.2 0 0 1 -0.2,0.2L 21.2 18a 0.2,0.2 0 0 0 -0.2,0.2L 21 18.8a 0.2,0.2 0 0 0 0.2,0.2L 21.8 19a 0.2,0.2 0 0 1 0.2,0.2L 22 19.8a 0.2,0.2 0 0 1 -0.2,0.2L 21.2 20a 0.2,0.2 0 0 0 -0.2,0.2L 21 20.8a 0.2,0.2 0 0 0 0.2,0.2L 21.8 21a 0.2,0.2 0 0 0 0.2,-0.2L 22 20.2a 0.2,0.2 0 0 1 0.2,-0.2L 22.8 20a 0.2,0.2 0 0 1 0.2,0.2L 23 20.8a 0.2,0.2 0 0 0 0.2,0.2L 24.8 21a 0.2,0.2 0 0 1 0.2,0.2L 25 24.8a 0.2,0.2 0 0 1 -0.2,0.2L 17.2 25a 0.2,0.2 0 0 1 -0.2,-0.2L 17 24.2a 0.2,0.2 0 0 0 -0.2,-0.2L 14.2 24a 0.2,0.2 0 0 1 -0.2,-0.2L 14 21.2a 0.2,0.2 0 0 1 0.2,-0.2L 14.8 21a 0.2,0.2 0 0 1 0.2,0.2L 15 22.8a 0.2,0.2 0 0 0 0.2,0.2L 17.8 23a 0.2,0.2 0 0 1 0.2,0.2L 18 23.8a 0.2,0.2 0 0 0 0.2,0.2L 18.8 24a 0.2,0.2 0 0 0 0.2,-0.2L 19 23.2a 0.2,0.2 0 0 1 0.2,-0.2L 20.8 23a 0.2,0.2 0 0 0 0.2,-0.2L 21 22.2a 0.2,0.2 0 0 0 -0.2,-0.2L 20.2 22a 0.2,0.2 0 0 1 -0.2,-0.2L 20 21.2a 0.2,0.2 0 0 0 -0.2,-0.2L 19.2 21a 0.2,0.2 0 0 0 -0.2,0.2L 19 21.8a 0.2,0.2 0 0 1 -0.2,0.2L 17.2 22a 0.2,0.2 0 0 1 -0.2,-0.2L 17 21.2a 0.2,0.2 0 0 0 -0.2,-0.2L 15.2 21a 0.2,0.2 0 0 1 -0.2,-0.2L 15 20.2a 0.2,0.2 0 0 0 -0.2,-0.2L 14.2 20a 0.2,0.2 0 0 1 -0.2,-0.2L 14 19.2a 0.2,0.2 0 0 1 0.2,-0.2L 15.8 19a 0.2,0.2 0 0 0 0.2,-0.2L 16 18.2a 0.2,0.2 0 0 0 -0.2,-0.2L 14.2 18a 0.2,0.2 0 0 1 -0.2,-0.2L 14 17.2a 0.2,0.2 0 0 1 0.2,-0.2L 15.8 17a 0.2,0.2 0 0 0 0.2,-0.2L 16 15.2a 0.2,0.2 0 0 0 -0.2,-0.2L 15.2 15a 0.2,0.2 0 0 0 -0.2,0.2L 15 15.8a 0.2,0.2 0 0 1 -0.2,0.2L 14.2 16a 0.2,0.2 0 0 1 -0.2,-0.2L 14 15.2a 0.2,0.2 0 0 0 -0.2,-0.2L 13.2 15a 0.2,0.2 0 0 1 -0.2,-0.2L 13 14.2a 0.2,0.2 0 0 1 0.2,-0.2L 13.8 14a 0.2,0.2 0 0 0 0.2,-0.2L 14 13.2a 0.2,0.2 0 0 1 0.2,-0.2L 14.8 13a 0.2,0.2 0 0 1 0.2,0.2L 15 13.8a 0.2,0.2 0 0 0 0.2,0.2L 17.8 14a 0.2,0.2 0 0 1 0.2,0.2L 18 14.8a 0.2,0.2 0 0 1 -0.2,0.2L 17.2 15a 0.2,0.2 0 0 0 -0.2,0.2L 17 15.8a 0.2,0.2 0 0 0 0.2,0.2L 18.8 16a 0.2,0.2 0 0 0 0.2,-0.2L 19 13.2a 0.2,0.2 0 0 0 -0.2,-0.2L 18.2 13a 0.2,0.2 0 0 1 -0.2,-0.2L 18 12.2a 0.2,0.2 0 0 0 -0.2,-0.2L 17.2 12a 0.2,0.2 0 0 1 -0.2,-0.2L 17 11.2a 0.2,0.2 0 0 1 0.2,-0.2L 17.8 11a 0.2,0.2 0 0 0 0.2,-0.2L 18 10.2a 0.2,0.2 0 0 1 0.2,-0.2L 18.8 10a 0.2,0.2 0 0 0 0.2,-0.2zM 17 17.2a 0.2,0.2 0 0 1 0.2,-0.2L 19.8 17a 0.2,0.2 0 0 1 0.2,0.2L 20 19.8a 0.2,0.2 0 0 1 -0.2,0.2L 17.2 20a 0.2,0.2 0 0 1 -0.2,-0.2z M 23 22.2a 0.2,0.2 0 0 1 0.2,-0.2L 23.8 22a 0.2,0.2 0 0 1 0.2,0.2L 24 23.8a 0.2,0.2 0 0 1 -0.2,0.2L 22.2 24a 0.2,0.2 0 0 1 -0.2,-0.2L 22 23.2a 0.2,0.2 0 0 1 0.2,-0.2L 22.8 23a 0.2,0.2 0 0 0 0.2,-0.2z M 21 8.2a 0.2,0.2 0 0 1 0.2,-0.2L 21.8 8a 0.2,0.2 0 0 1 0.2,0.2L 22 8.8a 0.2,0.2 0 0 1 -0.2,0.2L 21.2 9a 0.2,0.2 0 0 1 -0.2,-0.2z M 23 8.2a 0.2,0.2 0 0 1 0.2,-0.2L 23.8 8a 0.2,0.2 0 0 1 0.2,0.2L 24 9.8a 0.2,0.2 0 0 0 0.2,0.2L 24.8 10a 0.2,0.2 0 0 1 0.2,0.2L 25 12.8a 0.2,0.2 0 0 1 -0.2,0.2L 24.2 13a 0.2,0.2 0 0 0 -0.2,0.2L 24 13.8a 0.2,0.2 0 0 0 0.2,0.2L 24.8 14a 0.2,0.2 0 0 1 0.2,0.2L 25 15.8a 0.2,0.2 0 0 1 -0.2,0.2L 24.2 16a 0.2,0.2 0 0 1 -0.2,-0.2L 24 15.2a 0.2,0.2 0 0 0 -0.2,-0.2L 23.2 15a 0.2,0.2 0 0 1 -0.2,-0.2L 23 13.2a 0.2,0.2 0 0 0 -0.2,-0.2L 22.2 13a 0.2,0.2 0 0 1 -0.2,-0.2L 22 12.2a 0.2,0.2 0 0 1 0.2,-0.2L 23.8 12a 0.2,0.2 0 0 0 0.2,-0.2L 24 11.2a 0.2,0.2 0 0 0 -0.2,-0.2L 23.2 11a 0.2,0.2 0 0 1 -0.2,-0.2z M 14 9.2a 0.2,0.2 0 0 1 0.2,-0.2L 14.8 9a 0.2,0.2 0 0 1 0.2,0.2L 15 9.8a 0.2,0.2 0 0 1 -0.2,0.2L 14.2 10a 0.2,0.2 0 0 1 -0.2,-0.2z M 15 10.2a 0.2,0.2 0 0 1 0.2,-0.2L 16.8 10a 0.2,0.2 0 0 1 0.2,0.2L 17 10.8a 0.2,0.2 0 0 1 -0.2,0.2L 15.2 11a 0.2,0.2 0 0 1 -0.2,-0.2z M 7 15.2a 0.2,0.2 0 0 1 0.2,-0.2L 7.8 15a 0.2,0.2 0 0 1 0.2,0.2L 8 15.8a 0.2,0.2 0 0 1 -0.2,0.2L 7.2 16a 0.2,0.2 0 0 1 -0.2,-0.2z M 11 15.2a 0.2,0.2 0 0 1 0.2,-0.2L 11.8 15a 0.2,0.2 0 0 1 0.2,0.2L 12 15.8a 0.2,0.2 0 0 1 -0.2,0.2L 11.2 16a 0.2,0.2 0 0 1 -0.2,-0.2z M 13 16.2a 0.2,0.2 0 0 1 0.2,-0.2L 13.8 16a 0.2,0.2 0 0 1 0.2,0.2L 14 16.8a 0.2,0.2 0 0 1 -0.2,0.2L 13.2 17a 0.2,0.2 0 0 1 -0.2,-0.2z M 22 16.2a 0.2,0.2 0 0 1 0.2,-0.2L 22.8 16a 0.2,0.2 0 0 1 0.2,0.2L 23 16.8a 0.2,0.2 0 0 1 -0.2,0.2L 22.2 17a 0.2,0.2 0 0 1 -0.2,-0.2z M 8 17.2a 0.2,0.2 0 0 1 0.2,-0.2L 12.8 17a 0.2,0.2 0 0 1 0.2,0.2L 13 17.8a 0.2,0.2 0 0 1 -0.2,0.2L 11.2 18a 0.2,0.2 0 0 0 -0.2,0.2L 11 18.8a 0.2,0.2 0 0 1 -0.2,0.2L 8.2 19a 0.2,0.2 0 0 1 -0.2,-0.2z M 13 18.2a 0.2,0.2 0 0 1 0.2,-0.2L 13.8 18a 0.2,0.2 0 0 1 0.2,0.2L 14 18.8a 0.2,0.2 0 0 1 -0.2,0.2L 13.2 19a 0.2,0.2 0 0 1 -0.2,-0.2z M 18 18.2a 0.2,0.2 0 0 1 0.2,-0.2L 18.8 18a 0.2,0.2 0 0 1 0.2,0.2L 19 18.8a 0.2,0.2 0 0 1 -0.2,0.2L 18.2 19a 0.2,0.2 0 0 1 -0.2,-0.2z M 22 18.2a 0.2,0.2 0 0 1 0.2,-0.2L 24.8 18a 0.2,0.2 0 0 1 0.2,0.2L 25 18.8a 0.2,0.2 0 0 1 -0.2,0.2L 22.2 19a 0.2,0.2 0 0 1 -0.2,-0.2z M 11 19.2a 0.2,0.2 0 0 1 0.2,-0.2L 11.8 19a 0.2,0.2 0 0 1 0.2,0.2L 12 19.8a 0.2,0.2 0 0 1 -0.2,0.2L 11.2 20a 0.2,0.2 0 0 1 -0.2,-0.2z M 8 20.2a 0.2,0.2 0 0 1 0.2,-0.2L 10.8 20a 0.2,0.2 0 0 1 0.2,0.2L 11 20.8a 0.2,0.2 0 0 1 -0.2,0.2L 10.2 21a 0.2,0.2 0 0 0 -0.2,0.2L 10 21.8a 0.2,0.2 0 0 1 -0.2,0.2L 9.2 22a 0.2,0.2 0 0 0 -0.2,0.2L 9 22.8a 0.2,0.2 0 0 0 0.2,0.2L 9.8 23a 0.2,0.2 0 0 1 0.2,0.2L 10 23.8a 0.2,0.2 0 0 1 -0.2,0.2L 9.2 24a 0.2,0.2 0 0 0 -0.2,0.2L 9 24.8a 0.2,0.2 0 0 1 -0.2,0.2L 8.2 25a 0.2,0.2 0 0 1 -0.2,-0.2z M 13 20.2a 0.2,0.2 0 0 1 0.2,-0.2L 13.8 20a 0.2,0.2 0 0 1 0.2,0.2L 14 20.8a 0.2,0.2 0 0 1 -0.2,0.2L 13.2 21a 0.2,0.2 0 0 1 -0.2,-0.2z M 11 21.2a 0.2,0.2 0 0 1 0.2,-0.2L 12.8 21a 0.2,0.2 0 0 1 0.2,0.2L 13 23.8a 0.2,0.2 0 0 1 -0.2,0.2L 12.2 24a 0.2,0.2 0 0 1 -0.2,-0.2L 12 22.2a 0.2,0.2 0 0 0 -0.2,-0.2L 11.2 22a 0.2,0.2 0 0 1 -0.2,-0.2z M 10 22.2a 0.2,0.2 0 0 1 0.2,-0.2L 10.8 22a 0.2,0.2 0 0 1 0.2,0.2L 11 22.8a 0.2,0.2 0 0 1 -0.2,0.2L 10.2 23a 0.2,0.2 0 0 1 -0.2,-0.2z M 13 24.2a 0.2,0.2 0 0 1 0.2,-0.2L 13.8 24a 0.2,0.2 0 0 1 0.2,0.2L 14 24.8a 0.2,0.2 0 0 1 -0.2,0.2L 13.2 25a 0.2,0.2 0 0 1 -0.2,-0.2z"></path><path id="qr squares" d="M1.05,0h4.9a1.05,1.05 0 0 1 1.05,1.05v4.9a1.05,1.05 0 0 1 -1.05,1.05h-4.9a1.05,1.05 0 0 1 -1.05,-1.05v-4.9a1.05,1.05 0 0 1 1.05,-1.05zM1.75,1h3.5a0.75,0.75 0 0 1 0.75,0.75v3.5a0.75,0.75 0 0 1 -0.75,0.75h-3.5a0.75,0.75 0 0 1 -0.75,-0.75v-3.5a0.75,0.75 0 0 1 0.75,-0.75zM3.5,2h0a1.5,1.5 0 0 1 1.5,1.5v0a1.5,1.5 0 0 1 -1.5,1.5h0a1.5,1.5 0 0 1 -1.5,-1.5v0a1.5,1.5 0 0 1 1.5,-1.5z M19.05,0h4.9a1.05,1.05 0 0 1 1.05,1.05v4.9a1.05,1.05 0 0 1 -1.05,1.05h-4.9a1.05,1.05 0 0 1 -1.05,-1.05v-4.9a1.05,1.05 0 0 1 1.05,-1.05zM19.75,1h3.5a0.75,0.75 0 0 1 0.75,0.75v3.5a0.75,0.75 0 0 1 -0.75,0.75h-3.5a0.75,0.75 0 0 1 -0.75,-0.75v-3.5a0.75,0.75 0 0 1 0.75,-0.75zM21.5,2h0a1.5,1.5 0 0 1 1.5,1.5v0a1.5,1.5 0 0 1 -1.5,1.5h0a1.5,1.5 0 0 1 -1.5,-1.5v0a1.5,1.5 0 0 1 1.5,-1.5z M1.05,18h4.9a1.05,1.05 0 0 1 1.05,1.05v4.9a1.05,1.05 0 0 1 -1.05,1.05h-4.9a1.05,1.05 0 0 1 -1.05,-1.05v-4.9a1.05,1.05 0 0 1 1.05,-1.05zM1.75,19h3.5a0.75,0.75 0 0 1 0.75,0.75v3.5a0.75,0.75 0 0 1 -0.75,0.75h-3.5a0.75,0.75 0 0 1 -0.75,-0.75v-3.5a0.75,0.75 0 0 1 0.75,-0.75zM3.5,20h0a1.5,1.5 0 0 1 1.5,1.5v0a1.5,1.5 0 0 1 -1.5,1.5h0a1.5,1.5 0 0 1 -1.5,-1.5v0a1.5,1.5 0 0 1 1.5,-1.5z" fill-rule="evenodd" fill-opacity="1" fill="rgb(255, 241, 212)"></path></svg>